<svg xmlns="http://www.w3.org/2000/svg" width="1024" height="1024" viewBox="0 0 1024 1024" fill="none">
  <rect x="96" y="96" width="832" height="832" rx="180" fill="#C6C6C6"/>

  <g transform="translate(220.4 220.4) scale(24.3)" stroke="#FFFFFF" stroke-width="2" stroke-linecap="round" stroke-linejoin="round" fill="none">
    <path d="M13 13.74a2 2 0 0 1-2 0L2.5 8.87a1 1 0 0 1 0-1.74L11 2.26a2 2 0 0 1 2 0l8.5 4.87a1 1 0 0 1 0 1.74z"/>
    <path d="m20 14.285 1.5.845a1 1 0 0 1 0 1.74L13 21.74a2 2 0 0 1-2 0l-8.5-4.87a1 1 0 0 1 0-1.74l1.5-.845"/>
  </g>
</svg>
